<svg width="28" height="49" viewBox="0 0 28 49" fill="none" xmlns="http://www.w3.org/2000/svg">
<rect x="9.1084" y="39.1992" width="28.7468" height="9.75945" rx="4.87973" transform="rotate(-90 9.1084 39.1992)" fill="url(#paint0_linear_390_91)"/>
<path fill-rule="evenodd" clip-rule="evenodd" d="M13.9727 48.995C14.077 48.9979 14.1814 48.9993 14.2859 48.9994C16.5481 49.0016 18.7867 48.3678 20.8637 47.137C22.9408 45.9062 24.8123 44.1044 26.3631 41.8428C27.6523 39.5063 27.9772 37.2096 27.9772 33.9562V24.8262H19.5287C19.5862 26.1208 19.5662 27.5108 19.547 28.8391C19.5378 29.4806 19.5287 30.1077 19.5287 30.7028V35.852L19.5287 35.852C19.0413 37.347 18.8788 37.8453 17.904 38.8419C16.7667 39.6724 15.7919 40.3338 14.2904 40.3338C14.1782 40.3337 14.0727 40.3328 13.9727 40.3307V48.995Z" fill="#00EEBC"/>
<path fill-rule="evenodd" clip-rule="evenodd" d="M14.0049 48.995C13.9005 48.9979 13.7961 48.9993 13.6916 48.9994C11.4294 49.0016 9.19085 48.3678 7.1138 47.137C5.03674 45.9062 3.16519 44.1044 1.61443 41.8428C0.325251 39.5063 0.000308037 37.2096 0.000308037 33.9562V24.8262H8.44881C8.39133 26.1208 8.41137 27.5108 8.43052 28.8391C8.43977 29.4806 8.44881 30.1077 8.44881 30.7028V35.852L8.44882 35.852C8.93623 37.347 9.0987 37.8453 10.0735 38.8419C11.2108 39.6724 12.1856 40.3338 13.6872 40.3338C13.7993 40.3337 13.9049 40.3328 14.0049 40.3307V48.995Z" fill="#00EEBC"/>
<path fill-rule="evenodd" clip-rule="evenodd" d="M13.9985 0.0253875C13.8942 0.0227812 13.7898 0.0215044 13.6854 0.021559C11.4242 0.0227377 9.18744 0.648314 7.11303 1.85976C5.03861 3.0712 3.17043 4.84285 1.62356 7.06558C0.338274 9.36136 0.016761 11.6167 0.0214262 14.8108L0.034518 23.7745L8.47947 23.7621C8.42015 22.4911 8.43819 21.1265 8.45543 19.8223C8.46375 19.1925 8.47189 18.5768 8.47104 17.9926L8.46366 12.9371L8.46367 12.9371C8.94873 11.4687 9.11042 10.9792 10.0834 9.99932C11.219 9.18226 12.1925 8.53147 13.6934 8.52926C13.8055 8.5292 13.911 8.53 14.011 8.53185L13.9985 0.0253875Z" fill="white"/>
<path fill-rule="evenodd" clip-rule="evenodd" d="M13.9663 0.0253875C14.0706 0.0224739 14.175 0.0208897 14.2794 0.0206367C16.5407 0.015155 18.7792 0.634141 20.8572 1.83947C22.9351 3.04479 24.8085 4.81094 26.3618 7.0291C27.6538 9.32109 27.9819 11.5755 27.9866 14.7696L27.9997 23.7333L19.5547 23.7457C19.6103 22.4746 19.5883 21.11 19.5672 19.8059C19.5571 19.1761 19.5471 18.5604 19.5463 17.9762L19.5389 12.9208L19.5389 12.9207C19.0495 11.4538 18.8864 10.9648 17.9106 9.98775C16.7726 9.17403 15.7972 8.52611 14.2963 8.52832C14.1842 8.52859 14.0787 8.5297 13.9787 8.53185L13.9663 0.0253875Z" fill="white"/>
<defs>
<linearGradient id="paint0_linear_390_91" x1="37.8552" y1="44.0789" x2="9.1084" y2="44.0789" gradientUnits="userSpaceOnUse">
<stop stop-color="#5A56F4"/>
<stop offset="1" stop-color="#EBEBEB"/>
</linearGradient>
</defs>
</svg>
